<svg width="90" height="90" viewBox="0 0 90 90" fill="none" xmlns="http://www.w3.org/2000/svg">
<path d="M30.4937 54.43C33.3537 52.7338 36.9693 53.8515 39.8145 55.5739C41.6538 56.6973 43.6931 57.2591 45.9467 57.2591C48.1833 57.259 50.2214 56.6971 52.077 55.5739C54.9077 53.8449 58.5127 52.7336 61.3649 54.425L69.4623 59.2269C77.216 63.8251 79.8717 74.421 72.8476 80.1236C71.2194 81.4455 69.4927 82.6642 67.6685 83.7783C60.8161 87.926 53.2906 89.9999 45.0311 90C36.7104 90 29.185 87.926 22.3938 83.7783C21.1107 83.0016 19.8769 82.1743 18.6924 81.2967C11.0395 75.6262 13.7075 64.3847 21.8795 59.5384L30.4937 54.43ZM45 26.6299C45 29.8003 42.4675 32.287 39.8145 33.9072C37.959 35.0303 36.4842 36.5455 35.3906 38.4343C34.2971 40.3403 33.7501 42.4355 33.75 44.75C33.7502 47.6474 32.8802 50.7919 30.4373 52.2406L21.1244 57.7635C12.7137 62.7514 1.53361 59.6961 0.350051 49.7948C0.11671 47.8427 0 45.8479 0 43.8096C4.72656e-05 35.263 2.01934 27.5336 6.05713 20.4952C10.0952 13.5195 15.5413 7.92461 22.3938 3.77685C24.1881 2.68103 26.0337 1.73006 27.9317 0.923903C36.8582 -2.86754 45 5.6035 45 15.5254V26.6299ZM46.875 15.8557C46.875 5.88191 55.263 -2.43979 64.0478 1.80914C65.2751 2.40274 66.4819 3.05863 67.6685 3.77685C74.4598 7.92461 79.9048 13.5195 83.9429 20.4952C87.9807 27.5336 90 35.263 90 43.8096C90 45.7645 89.8925 47.6793 89.6778 49.5547C88.595 59.009 77.9678 62.0464 69.9415 57.287L61.4364 52.2436C58.9924 50.7944 58.1248 47.6486 58.125 44.75C58.1249 42.4355 57.5779 40.3403 56.4844 38.4343C55.3908 36.5455 53.916 35.0303 52.077 33.9072C49.4108 32.2934 46.875 29.7931 46.875 26.6144V15.8557Z" fill="white"/>
</svg>
